<svg xmlns="http://www.w3.org/2000/svg" width="1200" height="630" viewBox="0 0 1200 630" role="img" aria-label="SRDM SATNA VB-G RAM G monitoring dashboard">
  <defs>
    <linearGradient id="bg" x1="0" y1="0" x2="1" y2="1">
      <stop offset="0" stop-color="#061b34"/>
      <stop offset="0.55" stop-color="#0b477f"/>
      <stop offset="1" stop-color="#1170b7"/>
    </linearGradient>
    <radialGradient id="glow" cx="78%" cy="18%" r="65%">
      <stop offset="0" stop-color="#65b7ff" stop-opacity=".30"/>
      <stop offset="1" stop-color="#65b7ff" stop-opacity="0"/>
    </radialGradient>
    <filter id="shadow" x="-20%" y="-20%" width="140%" height="140%">
      <feDropShadow dx="0" dy="14" stdDeviation="18" flood-color="#001226" flood-opacity=".30"/>
    </filter>
  </defs>
  <rect width="1200" height="630" rx="36" fill="url(#bg)"/>
  <rect width="1200" height="630" rx="36" fill="url(#glow)"/>
  <circle cx="1075" cy="95" r="170" fill="#fff" opacity=".035"/>
  <circle cx="1110" cy="540" r="220" fill="#fff" opacity=".025"/>
  <path d="M0 535C220 480 382 577 600 527s397-26 600 36v67H0z" fill="#04182d" opacity=".42"/>

  <g transform="translate(86 103)" filter="url(#shadow)">
    <rect width="286" height="286" rx="64" fill="#0a315a" stroke="#87c8ff" stroke-opacity=".28"/>
    <path d="M143 31 236 66v69c0 68-38 118-93 143-55-25-93-75-93-143V66z" fill="#fff" opacity=".09" stroke="#fff" stroke-opacity=".4" stroke-width="3"/>
    <path d="M91 193h31v-57H91zm43 0h31v-87h-31zm43 0h31V77h-31z" fill="#f3ad2b"/>
    <path d="M82 210h130" stroke="#fff" stroke-width="10" stroke-linecap="round"/>
    <circle cx="93" cy="104" r="14" fill="#fff"/>
    <path d="m83 98 10-15 10 15" fill="none" stroke="#fff" stroke-width="7" stroke-linecap="round" stroke-linejoin="round"/>
    <text x="143" y="252" text-anchor="middle" font-family="Inter,Segoe UI,Arial,sans-serif" font-size="30" font-weight="900" fill="#fff" letter-spacing="5">SRDM</text>
  </g>

  <g transform="translate(420 114)" font-family="Inter,Segoe UI,Arial,sans-serif">
    <text x="0" y="0" fill="#f3ad2b" font-size="24" font-weight="800" letter-spacing="4">OFFICIAL DAILY MONITORING</text>
    <text x="0" y="72" fill="#fff" font-size="58" font-weight="900">SRDM SATNA</text>
    <text x="0" y="128" fill="#ddecfb" font-size="34" font-weight="700">VB-G RAM G • SATNA &amp; MAIHAR</text>
    <text x="0" y="184" fill="#bcd4e9" font-size="23" font-weight="600">8 Janpad • GP • Sub Engineer • Cluster • Work Monitoring</text>

    <g transform="translate(0 231)">
      <rect width="610" height="94" rx="22" fill="#061c34" opacity=".72" stroke="#6bb8f3" stroke-opacity=".22"/>
      <g transform="translate(26 22)">
        <circle cx="24" cy="24" r="24" fill="#176a52"/>
        <path d="M13 25l7 7 15-18" fill="none" stroke="#fff" stroke-width="5" stroke-linecap="round" stroke-linejoin="round"/>
        <text x="64" y="20" fill="#fff" font-size="19" font-weight="800">Daily MIS visibility</text>
        <text x="64" y="47" fill="#aec9e0" font-size="16" font-weight="600">Mandays • Dysfunctional GP • Ongoing works • Alerts</text>
      </g>
    </g>
  </g>

  <g transform="translate(879 464)" font-family="Inter,Segoe UI,Arial,sans-serif">
    <circle cx="18" cy="18" r="18" fill="#f3ad2b"/>
    <path d="M10 18h16M18 10v16" stroke="#082f57" stroke-width="4" stroke-linecap="round"/>
    <text x="48" y="25" fill="#fff" font-size="20" font-weight="800">srdmsatna.online</text>
  </g>
</svg>
